<svg width="176" height="111" viewBox="0 0 176 111" fill="none" xmlns="http://www.w3.org/2000/svg">
<path d="M36.866 0H139.866L110.673 65H66.0585L36.866 0Z" fill="url(#paint0_linear_56_12679)" fill-opacity="0.35"/>
<g clip-path="url(#clip0_56_12679)" filter="url(#filter0_d_56_12679)">
<g clip-path="url(#clip1_56_12679)">
<path d="M80.4817 15.2115L88.06 35.1997H88.961L96.5392 15.2115H80.4817Z" fill="#7ECAFF"/>
<path d="M86.865 34.5333C87.1814 34.8899 87.6073 35.1118 88.0601 35.1997L80.4818 15.2115L69.8895 11.875C69.9378 12.2331 68.7929 10.5392 86.865 34.5333Z" fill="#B0E6FF"/>
<path d="M73.6389 13.0561L69.8895 11.8751C69.9378 12.2331 68.793 10.5392 86.865 34.5332C87.0993 34.7973 87.3938 34.9871 87.7147 35.1037L73.6389 13.0561Z" fill="#70C0E2"/>
<path d="M76.1479 3.63551L80.4817 15.2116L88.5105 6.05223L76.2944 3.56274C76.2414 3.58581 76.1923 3.61026 76.1479 3.63551Z" fill="#B0E6FF"/>
<path d="M96.5394 15.2116L88.9612 35.1997C89.414 35.1117 89.8398 34.8898 90.1563 34.5332C94.856 28.3082 107.187 11.9965 107.225 11.8458L96.5394 15.2116Z" fill="#B0E6FF"/>
<path d="M96.5393 15.2116L100.872 3.63926C100.821 3.61021 100.77 3.58562 100.72 3.56409L88.5105 6.05226L96.5393 15.2116Z" fill="#B0E6FF"/>
<path d="M80.4817 15.2115H96.5392L88.5104 6.05225L80.4817 15.2115Z" fill="#5EBFF5"/>
<path d="M76.148 3.6355C75.8622 3.79803 75.8181 3.89415 75.3688 4.47029C69.5198 11.9708 69.8257 11.4037 69.8895 11.875L80.4818 15.2115L76.148 3.6355Z" fill="#7ECAFF"/>
<path d="M73.6389 13.0562L76.2202 3.82832L76.148 3.6355C75.8623 3.79803 75.8181 3.89415 75.3689 4.47029C69.5198 11.9709 69.8258 11.4038 69.8894 11.8751L73.6389 13.0562Z" fill="#57B5DD"/>
<path d="M96.5393 15.2116L107.224 11.846C107.255 11.6891 107.209 11.5962 107.133 11.4989C101.834 4.69638 101.099 3.69468 100.872 3.63928L96.5393 15.2116Z" fill="#7ECAFF"/>
<path d="M88.5105 6.05224L100.72 3.56407C100.463 3.45262 100.259 3.43649 100.251 3.4351L90.4105 2.10972C87.3146 1.69268 85.9803 2.32305 76.7445 3.43861C76.7302 3.44167 76.5317 3.45955 76.2944 3.56283L88.5105 6.05224Z" fill="#5EBFF5"/>
</g>
</g>
<path d="M145.866 11L170.732 34.1879L122.834 64.4428L112.063 54.3988L145.866 11Z" fill="url(#paint1_linear_56_12679)" fill-opacity="0.35"/>
<path d="M30.866 11L5.99994 34.1879L53.8983 64.4428L64.6691 54.3988L30.866 11Z" fill="url(#paint2_linear_56_12679)" fill-opacity="0.35"/>
<g filter="url(#filter1_d_56_12679)">
<path d="M110.021 67.5001C110.021 63.6431 110.021 61.7146 110.828 60.2675C111.404 59.2352 112.256 58.3834 113.288 57.8075C114.735 57.0001 116.664 57.0001 120.521 57.0001H138.355C142.295 57.0001 144.264 57.0001 145.189 57.8872C145.767 58.4415 146.114 59.1929 146.163 59.9919C146.241 61.2708 144.966 62.7726 142.417 65.7761C141.859 66.4335 141.58 66.7621 141.492 67.1361C141.436 67.3755 141.436 67.6247 141.492 67.8641C141.58 68.2381 141.859 68.5667 142.417 69.2241C144.966 72.2277 146.241 73.7294 146.163 75.0083C146.114 75.8074 145.767 76.5587 145.189 77.113C144.264 78.0001 142.295 78.0001 138.355 78.0001H120.521C116.664 78.0001 114.735 78.0001 113.288 77.1927C112.256 76.6168 111.404 75.7651 110.828 74.7327C110.021 73.2856 110.021 71.3571 110.021 67.5001Z" fill="#7CC7FB"/>
</g>
<g filter="url(#filter2_d_56_12679)">
<path d="M65.7114 67.5C65.7114 71.357 65.7114 73.2855 64.9041 74.7326C64.3281 75.765 63.4764 76.6167 62.4441 77.1926C60.9969 78 59.0684 78 55.2114 78L37.3776 78C33.4379 78 31.468 78 30.5435 77.1129C29.9659 76.5587 29.6181 75.8073 29.5694 75.0082C29.4913 73.7294 30.7661 72.2276 33.3156 69.224C33.8736 68.5667 34.1526 68.238 34.2404 67.864C34.2966 67.6246 34.2966 67.3754 34.2404 67.136C34.1526 66.7621 33.8736 66.4334 33.3156 65.776C30.7661 62.7725 29.4913 61.2707 29.5694 59.9918C29.6181 59.1928 29.9659 58.4414 30.5435 57.8871C31.468 57 33.4379 57 37.3776 57L55.2114 57C59.0684 57 60.9969 57 62.4441 57.8074C63.4764 58.3833 64.3281 59.2351 64.9041 60.2674C65.7114 61.7145 65.7114 63.643 65.7114 67.5Z" fill="#7CC7FB"/>
</g>
<g filter="url(#filter3_di_56_12679)">
<rect x="47.866" y="43" width="79" height="27" rx="6" fill="#7ECAFF"/>
</g>
<path d="M103.741 35.7144L104.237 38.9746L107.035 40.7205L103.774 41.2162L102.028 44.0138L101.533 40.7536L98.7352 39.0077L101.995 38.512L103.741 35.7144Z" fill="white"/>
<path d="M117.954 33.0002L117.097 34.8061L117.909 36.6326L116.104 35.775L114.277 36.5877L115.135 34.7818L114.322 32.9553L116.128 33.8129L117.954 33.0002Z" fill="white"/>
<path d="M62.0469 32.0837L61.1893 33.8896L62.002 35.7161L60.1961 34.8585L58.3696 35.6712L59.2272 33.8653L58.4145 32.0388L60.2204 32.8964L62.0469 32.0837Z" fill="white"/>
<path d="M73.6533 33.2709L73.5585 34.499L74.4291 35.3704L73.201 35.2756L72.3296 36.1463L72.4243 34.9181L71.5537 34.0467L72.7819 34.1415L73.6533 33.2709Z" fill="white"/>
<path d="M68.7807 41.1421L68.6859 42.3702L69.5566 43.2416L68.3284 43.1469L67.457 44.0175L67.5518 42.7893L66.6812 41.9179L67.9093 42.0127L68.7807 41.1421Z" fill="white"/>
<path d="M107.762 29.1479L107.667 30.3761L108.538 31.2475L107.309 31.1527L106.438 32.0234L106.533 30.7952L105.662 29.9238L106.89 30.0186L107.762 29.1479Z" fill="white"/>
<g filter="url(#filter4_i_56_12679)">
<path d="M65.199 64H71.0911V62.4639H67.8147V62.3457L69.0715 61.2446C70.4949 60.0093 70.9836 59.2358 70.9836 58.3604V58.3335C70.9836 56.9585 69.8289 56.04 68.1047 56.04C66.2947 56.04 65.0862 57.082 65.0862 58.6235V58.6558H66.8909V58.6182C66.8909 57.979 67.3582 57.5278 68.0242 57.5278C68.6794 57.5278 69.0715 57.9092 69.0715 58.4893V58.5107C69.0715 58.9834 68.7708 59.3701 67.6321 60.4175L65.199 62.6841V64ZM75.6887 64.2095C77.7083 64.2095 78.9436 62.6411 78.9436 60.1274V60.1167C78.9436 57.603 77.7083 56.04 75.6887 56.04C73.6692 56.04 72.4285 57.603 72.4285 60.1167V60.1274C72.4285 62.6411 73.6692 64.2095 75.6887 64.2095ZM75.6887 62.6948C74.8777 62.6948 74.4265 61.7656 74.4265 60.1274V60.1167C74.4265 58.4785 74.8777 57.5547 75.6887 57.5547C76.4998 57.5547 76.9509 58.4785 76.9509 60.1167V60.1274C76.9509 61.7656 76.4998 62.6948 75.6887 62.6948ZM83.5413 64.2095C85.5608 64.2095 86.7961 62.6411 86.7961 60.1274V60.1167C86.7961 57.603 85.5608 56.04 83.5413 56.04C81.5217 56.04 80.281 57.603 80.281 60.1167V60.1274C80.281 62.6411 81.5217 64.2095 83.5413 64.2095ZM83.5413 62.6948C82.7302 62.6948 82.2791 61.7656 82.2791 60.1274V60.1167C82.2791 58.4785 82.7302 57.5547 83.5413 57.5547C84.3523 57.5547 84.8035 58.4785 84.8035 60.1167V60.1274C84.8035 61.7656 84.3523 62.6948 83.5413 62.6948ZM91.0876 64H93.0588V56.2495H91.0876V64ZM98.2742 64.2095C100.261 64.2095 101.636 63.001 101.765 61.2715V61.1855H99.8694L99.8586 61.2446C99.7244 62.0449 99.1282 62.5767 98.2795 62.5767C97.1946 62.5767 96.5339 61.6475 96.5339 60.1221V60.1113C96.5339 58.5967 97.1946 57.6729 98.2742 57.6729C99.1228 57.6729 99.7458 58.2422 99.8586 59.0532L99.864 59.1016H101.76V59.0049C101.647 57.2915 100.224 56.04 98.2742 56.04C95.9485 56.04 94.5251 57.5923 94.5251 60.1167V60.1274C94.5251 62.6519 95.9539 64.2095 98.2742 64.2095ZM103.194 64H108.506V62.4155H105.165V60.8311H108.307V59.3809H105.165V57.834H108.506V56.2495H103.194V64Z" fill="white"/>
</g>
<g opacity="0.75" filter="url(#filter5_i_56_12679)">
<path d="M67.5314 49.8L65.9954 52.464V54H64.9574V52.464L63.4214 49.8H64.6154L65.3354 51.042L65.4734 51.324L65.6114 51.042L66.3374 49.8H67.5314ZM67.9281 50.334C68.3401 49.926 68.8681 49.722 69.5121 49.722C70.1561 49.722 70.6841 49.926 71.0961 50.334C71.5081 50.742 71.7141 51.262 71.7141 51.894C71.7141 52.53 71.5081 53.054 71.0961 53.466C70.6841 53.874 70.1561 54.078 69.5121 54.078C68.8681 54.078 68.3401 53.874 67.9281 53.466C67.5161 53.054 67.3101 52.53 67.3101 51.894C67.3101 51.262 67.5161 50.742 67.9281 50.334ZM70.3281 51.024C70.1281 50.8 69.8561 50.688 69.5121 50.688C69.1681 50.688 68.8941 50.8 68.6901 51.024C68.4901 51.248 68.3901 51.538 68.3901 51.894C68.3901 52.254 68.4901 52.548 68.6901 52.776C68.8941 53 69.1681 53.112 69.5121 53.112C69.8561 53.112 70.1281 53 70.3281 52.776C70.5321 52.548 70.6341 52.254 70.6341 51.894C70.6341 51.538 70.5321 51.248 70.3281 51.024ZM75.7449 49.8V52.29C75.7449 52.85 75.5929 53.288 75.2889 53.604C74.9889 53.92 74.5589 54.078 73.9989 54.078C73.4389 54.078 73.0069 53.92 72.7029 53.604C72.3989 53.288 72.2469 52.85 72.2469 52.29V49.8H73.2849V52.29C73.2849 52.838 73.5229 53.112 73.9989 53.112C74.4709 53.112 74.7069 52.838 74.7069 52.29V49.8H75.7449ZM76.7848 49.644C76.9408 49.644 77.0708 49.698 77.1748 49.806C77.2828 49.914 77.3368 50.058 77.3368 50.238C77.3368 50.45 77.2828 50.67 77.1748 50.898C77.0708 51.126 76.9368 51.334 76.7728 51.522L76.5088 51.432C76.6048 51.216 76.6648 50.966 76.6888 50.682C76.5568 50.662 76.4488 50.606 76.3648 50.514C76.2808 50.422 76.2388 50.31 76.2388 50.178C76.2388 50.03 76.2908 49.904 76.3948 49.8C76.5028 49.696 76.6328 49.644 76.7848 49.644ZM81.7309 49.8L80.1289 54H79.1389L77.5369 49.8H78.6349L79.5409 52.266L79.6309 52.566L79.7269 52.266L80.6329 49.8H81.7309ZM84.5996 49.8V50.766H83.1356V51.366H84.3776V52.332H83.1356V53.034H84.5996V54H82.0976V49.8H84.5996ZM89.0586 49.8V50.766H87.5946V51.366H88.8366V52.332H87.5946V53.034H89.0586V54H86.5566V49.8H89.0586ZM92.1272 49.8L93.7112 54H92.5952L92.3132 53.208H90.7772L90.4952 54H89.3792L90.9632 49.8H92.1272ZM91.5452 51.024L91.4672 51.27L91.0952 52.326H91.9952L91.6232 51.27L91.5452 51.024ZM96.3835 52.326L97.2475 54H96.0715L95.3275 52.524H95.1415V54H94.1035V49.8H95.5135C95.9855 49.8 96.3615 49.928 96.6415 50.184C96.9255 50.44 97.0675 50.776 97.0675 51.192C97.0675 51.44 97.0075 51.662 96.8875 51.858C96.7675 52.054 96.5995 52.21 96.3835 52.326ZM95.5135 50.766H95.1415V51.618H95.5135C95.8415 51.618 96.0055 51.476 96.0055 51.192C96.0055 50.908 95.8415 50.766 95.5135 50.766ZM101.409 49.8V54H100.371L98.9129 51.822L98.7509 51.528V54H97.7129V49.8H98.7509L100.203 52.002L100.371 52.302V49.8H101.409ZM104.68 49.8V50.766H103.216V51.366H104.458V52.332H103.216V53.034H104.68V54H102.178V49.8H104.68ZM105.318 49.8H106.938C107.606 49.8 108.14 49.996 108.54 50.388C108.94 50.776 109.14 51.28 109.14 51.9C109.14 52.52 108.94 53.026 108.54 53.418C108.14 53.806 107.606 54 106.938 54H105.318V49.8ZM106.938 50.766H106.356V53.034H106.938C107.306 53.034 107.584 52.938 107.772 52.746C107.964 52.55 108.06 52.268 108.06 51.9C108.06 51.532 107.964 51.252 107.772 51.06C107.584 50.864 107.306 50.766 106.938 50.766Z" fill="white"/>
</g>
<defs>
<filter id="filter0_d_56_12679" x="69.6512" y="1.78524" width="37.4295" height="33.4295" filterUnits="userSpaceOnUse" color-interpolation-filters="sRGB">
<feFlood flood-opacity="0" result="BackgroundImageFix"/>
<feColorMatrix in="SourceAlpha" type="matrix" values="0 0 0 0 0 0 0 0 0 0 0 0 0 0 0 0 0 0 127 0" result="hardAlpha"/>
<feOffset/>
<feGaussianBlur stdDeviation="0.107379"/>
<feComposite in2="hardAlpha" operator="out"/>
<feColorMatrix type="matrix" values="0 0 0 0 0 0 0 0 0 0 0 0 0 0 0 0 0 0 0.25 0"/>
<feBlend mode="normal" in2="BackgroundImageFix" result="effect1_dropShadow_56_12679"/>
<feBlend mode="normal" in="SourceGraphic" in2="effect1_dropShadow_56_12679" result="shape"/>
</filter>
<filter id="filter1_d_56_12679" x="80.6924" y="31.3376" width="94.8026" height="79.6571" filterUnits="userSpaceOnUse" color-interpolation-filters="sRGB">
<feFlood flood-opacity="0" result="BackgroundImageFix"/>
<feColorMatrix in="SourceAlpha" type="matrix" values="0 0 0 0 0 0 0 0 0 0 0 0 0 0 0 0 0 0 127 0" result="hardAlpha"/>
<feOffset dy="3.66607"/>
<feGaussianBlur stdDeviation="14.6643"/>
<feComposite in2="hardAlpha" operator="out"/>
<feColorMatrix type="matrix" values="0 0 0 0 0 0 0 0 0 0 0 0 0 0 0 0 0 0 0.25 0"/>
<feBlend mode="normal" in2="BackgroundImageFix" result="effect1_dropShadow_56_12679"/>
<feBlend mode="normal" in="SourceGraphic" in2="effect1_dropShadow_56_12679" result="shape"/>
</filter>
<filter id="filter2_d_56_12679" x="0.237354" y="31.3375" width="94.8026" height="79.6571" filterUnits="userSpaceOnUse" color-interpolation-filters="sRGB">
<feFlood flood-opacity="0" result="BackgroundImageFix"/>
<feColorMatrix in="SourceAlpha" type="matrix" values="0 0 0 0 0 0 0 0 0 0 0 0 0 0 0 0 0 0 127 0" result="hardAlpha"/>
<feOffset dy="3.66607"/>
<feGaussianBlur stdDeviation="14.6643"/>
<feComposite in2="hardAlpha" operator="out"/>
<feColorMatrix type="matrix" values="0 0 0 0 0 0 0 0 0 0 0 0 0 0 0 0 0 0 0.25 0"/>
<feBlend mode="normal" in2="BackgroundImageFix" result="effect1_dropShadow_56_12679"/>
<feBlend mode="normal" in="SourceGraphic" in2="effect1_dropShadow_56_12679" result="shape"/>
</filter>
<filter id="filter3_di_56_12679" x="32.5414" y="32.0539" width="109.649" height="57.6491" filterUnits="userSpaceOnUse" color-interpolation-filters="sRGB">
<feFlood flood-opacity="0" result="BackgroundImageFix"/>
<feColorMatrix in="SourceAlpha" type="matrix" values="0 0 0 0 0 0 0 0 0 0 0 0 0 0 0 0 0 0 127 0" result="hardAlpha"/>
<feOffset dy="4.37844"/>
<feGaussianBlur stdDeviation="7.66227"/>
<feComposite in2="hardAlpha" operator="out"/>
<feColorMatrix type="matrix" values="0 0 0 0 0 0 0 0 0 0 0 0 0 0 0 0 0 0 0.35 0"/>
<feBlend mode="normal" in2="BackgroundImageFix" result="effect1_dropShadow_56_12679"/>
<feBlend mode="normal" in="SourceGraphic" in2="effect1_dropShadow_56_12679" result="shape"/>
<feColorMatrix in="SourceAlpha" type="matrix" values="0 0 0 0 0 0 0 0 0 0 0 0 0 0 0 0 0 0 127 0" result="hardAlpha"/>
<feOffset dy="-4.58259"/>
<feGaussianBlur stdDeviation="4.58259"/>
<feComposite in2="hardAlpha" operator="arithmetic" k2="-1" k3="1"/>
<feColorMatrix type="matrix" values="0 0 0 0 0.0875 0 0 0 0 0.0522686 0 0 0 0 0.00546875 0 0 0 0.1 0"/>
<feBlend mode="normal" in2="shape" result="effect2_innerShadow_56_12679"/>
</filter>
<filter id="filter4_i_56_12679" x="65.0862" y="56.04" width="43.4199" height="8.16943" filterUnits="userSpaceOnUse" color-interpolation-filters="sRGB">
<feFlood flood-opacity="0" result="BackgroundImageFix"/>
<feBlend mode="normal" in="SourceGraphic" in2="BackgroundImageFix" result="shape"/>
<feColorMatrix in="SourceAlpha" type="matrix" values="0 0 0 0 0 0 0 0 0 0 0 0 0 0 0 0 0 0 127 0" result="hardAlpha"/>
<feOffset/>
<feGaussianBlur stdDeviation="0.294687"/>
<feComposite in2="hardAlpha" operator="arithmetic" k2="-1" k3="1"/>
<feColorMatrix type="matrix" values="0 0 0 0 0 0 0 0 0 0 0 0 0 0 0 0 0 0 0.15 0"/>
<feBlend mode="normal" in2="shape" result="effect1_innerShadow_56_12679"/>
</filter>
<filter id="filter5_i_56_12679" x="63.4214" y="49.644" width="45.719" height="4.43396" filterUnits="userSpaceOnUse" color-interpolation-filters="sRGB">
<feFlood flood-opacity="0" result="BackgroundImageFix"/>
<feBlend mode="normal" in="SourceGraphic" in2="BackgroundImageFix" result="shape"/>
<feColorMatrix in="SourceAlpha" type="matrix" values="0 0 0 0 0 0 0 0 0 0 0 0 0 0 0 0 0 0 127 0" result="hardAlpha"/>
<feOffset/>
<feGaussianBlur stdDeviation="0.294687"/>
<feComposite in2="hardAlpha" operator="arithmetic" k2="-1" k3="1"/>
<feColorMatrix type="matrix" values="0 0 0 0 0 0 0 0 0 0 0 0 0 0 0 0 0 0 0.15 0"/>
<feBlend mode="normal" in2="shape" result="effect1_innerShadow_56_12679"/>
</filter>
<linearGradient id="paint0_linear_56_12679" x1="88.366" y1="0" x2="88.366" y2="65" gradientUnits="userSpaceOnUse">
<stop stop-color="#FFD436" stop-opacity="0"/>
<stop offset="1" stop-color="#FFE600"/>
</linearGradient>
<linearGradient id="paint1_linear_56_12679" x1="158.299" y1="22.594" x2="120.93" y2="62.6675" gradientUnits="userSpaceOnUse">
<stop stop-color="#FFD436" stop-opacity="0"/>
<stop offset="1" stop-color="#FFE600"/>
</linearGradient>
<linearGradient id="paint2_linear_56_12679" x1="18.433" y1="22.594" x2="55.8021" y2="62.6675" gradientUnits="userSpaceOnUse">
<stop stop-color="#FFD436" stop-opacity="0"/>
<stop offset="1" stop-color="#FFE600"/>
</linearGradient>
<clipPath id="clip0_56_12679">
<rect width="37" height="33" fill="white" transform="translate(69.866 2)"/>
</clipPath>
<clipPath id="clip1_56_12679">
<rect width="37.3678" height="33.18" fill="white" transform="translate(69.866 2)"/>
</clipPath>
</defs>
</svg>
