<svg width="20" height="21" viewBox="0 0 20 21" fill="none" xmlns="http://www.w3.org/2000/svg">
<rect y="1" width="20" height="20" rx="10" fill="#919191"/>
<rect width="20" height="20" rx="10" fill="white"/>
<path opacity="0.74" d="M6.9186 5.73125H10.108C11.4231 5.73125 12.4744 6.11712 13.2619 6.88887C14.0494 7.65275 14.4432 8.645 14.4432 9.86562C14.4432 11.0862 14.0494 12.0824 13.2619 12.8542C12.4744 13.6181 11.4231 14 10.108 14H6.9186V5.73125ZM10.108 7.63306H8.96216V12.0982H10.108C10.8325 12.0982 11.3798 11.9092 11.7499 11.5312C12.1279 11.1453 12.3169 10.5901 12.3169 9.86562C12.3169 9.14112 12.1279 8.58987 11.7499 8.21187C11.3798 7.826 10.8325 7.63306 10.108 7.63306Z" fill="black"/>
</svg>
