<svg width="18" height="15" viewBox="0 0 18 15" fill="none" xmlns="http://www.w3.org/2000/svg">
<g clip-path="url(#clip0_6803_5368)">
<path d="M5.36169 5.97266L8.78768 15.0089H9.195L12.621 5.97266H5.36169Z" fill="#7ECAFF"/>
<path d="M8.24739 14.7077C8.39042 14.8689 8.58294 14.9692 8.78767 15.009L5.36169 5.97273L0.573124 4.46436C0.594933 4.62623 0.077381 3.86046 8.24739 14.7077Z" fill="#B0E6FF"/>
<path d="M2.26815 4.99827L0.573123 4.46436C0.594933 4.62619 0.0774137 3.86042 8.24739 14.7076C8.3533 14.827 8.48643 14.9128 8.63151 14.9655L2.26815 4.99827Z" fill="#70C0E2"/>
<path d="M3.4025 0.739438L5.36171 5.97274L8.99134 1.83199L3.46872 0.706543C3.44473 0.716969 3.42252 0.728022 3.4025 0.739438Z" fill="#B0E6FF"/>
<path d="M12.621 5.97263L9.19501 15.0088C9.39974 14.9691 9.59223 14.8687 9.73529 14.7075C11.8599 11.8934 17.4347 4.51915 17.4515 4.45105L12.621 5.97263Z" fill="#B0E6FF"/>
<path d="M12.621 5.97263L14.5796 0.741016C14.5565 0.727884 14.5335 0.716765 14.5111 0.707031L8.99133 1.83188L12.621 5.97263Z" fill="#B0E6FF"/>
<path d="M5.36169 5.97263H12.621L8.99132 1.83191L5.36169 5.97263Z" fill="#5EBFF5"/>
<path d="M3.40247 0.73938C3.27326 0.812859 3.25333 0.856313 3.05022 1.11677C0.406003 4.50759 0.544316 4.25122 0.573121 4.4643L5.36168 5.97264L3.40247 0.73938Z" fill="#7ECAFF"/>
<path d="M2.26811 4.99828L3.43506 0.826552L3.40243 0.73938C3.27326 0.812859 3.25329 0.856313 3.05018 1.11677C0.405932 4.50762 0.544278 4.25125 0.573049 4.46433L2.26811 4.99828Z" fill="#57B5DD"/>
<path d="M12.621 5.9727L17.4515 4.45116C17.4651 4.38025 17.4446 4.33825 17.4102 4.29424C15.0147 1.21898 14.6825 0.766132 14.5796 0.741089L12.621 5.9727Z" fill="#7ECAFF"/>
<path d="M8.99135 1.83191L14.5112 0.707056C14.395 0.656673 14.3024 0.649381 14.2989 0.648754L9.85029 0.0495737C8.4507 -0.138957 7.84749 0.146017 3.67216 0.650338C3.66573 0.651724 3.57598 0.659808 3.46872 0.706495L8.99135 1.83191Z" fill="#5EBFF5"/>
</g>
<defs>
<clipPath id="clip0_6803_5368">
<rect width="16.8932" height="15" fill="white" transform="translate(0.5625)"/>
</clipPath>
</defs>
</svg>
