<svg width="44" height="44" viewBox="0 0 44 44" fill="none" xmlns="http://www.w3.org/2000/svg">
<g filter="url(#filter0_d_6776_2170)">
<path d="M36.9998 18.5809C37.0005 19.6906 36.8785 20.7969 36.6359 21.8797C36.2609 23.5528 35.5989 25.1482 34.6793 26.5953C33.4893 28.4769 31.8958 30.0704 30.0143 31.2604C28.5672 32.1799 26.9717 32.8419 25.2986 33.217C23.1262 33.7021 20.8735 33.7021 18.7011 33.217C17.0281 32.8419 15.4326 32.1799 13.9855 31.2604C12.1039 30.0704 10.5105 28.4769 9.32046 26.5953C8.40087 25.1482 7.73888 23.5528 7.36385 21.8797C6.87872 19.7065 6.87872 17.453 7.36385 15.2798C7.99018 12.5126 9.38743 9.97933 11.3938 7.97335C13.4003 5.96736 15.9338 4.57065 18.7011 3.94491C20.8735 3.45977 23.1262 3.45977 25.2986 3.94491C28.0657 4.57134 30.5988 5.96828 32.6051 7.97415C34.6114 9.98003 36.0089 12.5129 36.6359 15.2798C36.8786 16.3634 37.0006 17.4705 36.9998 18.5809Z" fill="#B10000"/>
<path d="M22.0001 27.5562C26.9573 27.5562 30.976 23.5375 30.976 18.5803C30.976 13.6231 26.9573 9.60449 22.0001 9.60449C17.0429 9.60449 13.0243 13.6231 13.0243 18.5803C13.0243 23.5375 17.0429 27.5562 22.0001 27.5562Z" fill="white"/>
<path d="M25.5785 20.5277C26.0529 20.0532 26.3195 19.4097 26.3195 18.7386C26.3195 18.0676 26.0529 17.4241 25.5785 16.9496L22.0004 13.3716L18.4224 16.9496C18.0284 17.3446 17.776 17.8588 17.7044 18.4121C17.6329 18.9654 17.7463 19.5269 18.0269 20.0091C18.3076 20.4913 18.7397 20.8672 19.2561 21.0784C19.7726 21.2895 20.3443 21.324 20.8824 21.1766C20.7727 22.1048 20.4601 22.9974 19.9667 23.7913H24.0349C23.5414 22.9975 23.2288 22.1048 23.1192 21.1766C23.5499 21.2954 24.0044 21.298 24.4364 21.184C24.8684 21.07 25.2625 20.8435 25.5785 20.5277V20.5277Z" fill="#B10000"/>
<path d="M25.2985 3.94491L24.4793 6.95452H19.5203L18.701 3.94491C20.8734 3.45977 23.1261 3.45977 25.2985 3.94491V3.94491Z" fill="white"/>
<path d="M25.2985 33.2171C23.1261 33.7022 20.8734 33.7022 18.701 33.2171L19.5203 30.2051H24.4793L25.2985 33.2171Z" fill="white"/>
<path d="M34.6791 10.5664L31.9731 12.1133L28.4671 8.60493L30.0116 5.89893C31.8946 7.08907 33.4889 8.68344 34.6791 10.5664V10.5664Z" fill="white"/>
<path d="M15.5332 28.5545L13.9862 31.2605C12.1047 30.0705 10.5112 28.477 9.3212 26.5954L12.0272 25.0485L15.5332 28.5545Z" fill="white"/>
<path d="M37 18.5812C37.0007 19.6909 36.8787 20.7972 36.6361 21.88L33.6265 21.0607V16.1017L36.6361 15.28C36.8788 16.3636 37.0009 17.4708 37 18.5812Z" fill="white"/>
<path d="M10.3735 16.1017V21.0607L7.36385 21.88C6.87872 19.7067 6.87872 17.4533 7.36385 15.28L10.3735 16.1017Z" fill="white"/>
<path d="M34.6791 26.5954C33.4891 28.477 31.8956 30.0705 30.014 31.2605L28.4671 28.5545L31.9731 25.0485L34.6791 26.5954Z" fill="white"/>
<path d="M15.5332 8.60493L12.0272 12.1133L9.3212 10.5664C10.5113 8.68344 12.1057 7.08907 13.9886 5.89893L15.5332 8.60493Z" fill="white"/>
</g>
<defs>
<filter id="filter0_d_6776_2170" x="0.154624" y="0.158367" width="43.6908" height="43.6906" filterUnits="userSpaceOnUse" color-interpolation-filters="sRGB">
<feFlood flood-opacity="0" result="BackgroundImageFix"/>
<feColorMatrix in="SourceAlpha" type="matrix" values="0 0 0 0 0 0 0 0 0 0 0 0 0 0 0 0 0 0 127 0" result="hardAlpha"/>
<feOffset dy="3.42269"/>
<feGaussianBlur stdDeviation="3.42269"/>
<feComposite in2="hardAlpha" operator="out"/>
<feColorMatrix type="matrix" values="0 0 0 0 0 0 0 0 0 0 0 0 0 0 0 0 0 0 0.12 0"/>
<feBlend mode="normal" in2="BackgroundImageFix" result="effect1_dropShadow_6776_2170"/>
<feBlend mode="normal" in="SourceGraphic" in2="effect1_dropShadow_6776_2170" result="shape"/>
</filter>
</defs>
</svg>
