<svg width="84" height="35" viewBox="0 0 84 35" fill="none" xmlns="http://www.w3.org/2000/svg">
<g filter="url(#filter0_d_6838_6356)">
<rect x="8" y="4" width="68" height="19" rx="9.5" fill="#D96060"/>
<path d="M21.5706 9.3H17.2036V17H18.7106V13.854H21.1306V12.446H18.7106V10.708H21.5706V9.3ZM26.9663 11.423H25.5473V14.415C25.5473 15.317 25.1183 15.735 24.5793 15.735C24.0513 15.735 23.7873 15.383 23.7873 14.723V11.423H22.3683V15.042C22.3683 16.307 22.9623 17.121 24.1613 17.121C24.8873 17.121 25.3823 16.758 25.6353 16.274L25.7453 17H26.9663V11.423ZM29.8799 8.97H28.4609V17H29.8799V8.97ZM32.8233 8.97H31.4043V17H32.8233V8.97ZM43.1223 9.3H41.6153V12.314H38.3043V9.3H36.7973V17H38.3043V13.722H41.6153V17H43.1223V9.3ZM47.1469 11.302C45.4749 11.302 44.2319 12.479 44.2319 14.206C44.2319 15.933 45.4749 17.121 47.1469 17.121C48.8299 17.121 50.0839 15.933 50.0839 14.206C50.0839 12.479 48.8299 11.302 47.1469 11.302ZM47.1579 12.6C48.0269 12.6 48.6099 13.282 48.6099 14.206C48.6099 15.13 48.0269 15.823 47.1579 15.823C46.2889 15.823 45.7059 15.13 45.7059 14.206C45.7059 13.282 46.2889 12.6 47.1579 12.6ZM55.7016 11.423H54.2826V14.415C54.2826 15.317 53.8536 15.735 53.3146 15.735C52.7866 15.735 52.5226 15.383 52.5226 14.723V11.423H51.1036V15.042C51.1036 16.307 51.6976 17.121 52.8966 17.121C53.6226 17.121 54.1176 16.758 54.3706 16.274L54.4806 17H55.7016V11.423ZM58.9672 11.302C57.5922 11.302 56.9212 12.149 56.9212 13.106C56.9212 14.03 57.4712 14.558 58.6922 14.767C59.5282 14.921 59.7042 15.119 59.7042 15.46C59.7042 15.79 59.4512 15.999 59.0112 15.999C58.5162 15.999 58.2192 15.757 58.2082 15.306H56.8002C56.8442 16.406 57.6032 17.121 58.9782 17.121C60.1332 17.121 61.1342 16.571 61.1342 15.306C61.1342 14.404 60.6612 13.843 59.3082 13.623C58.5272 13.48 58.3402 13.315 58.3402 12.974C58.3402 12.655 58.5382 12.424 58.9562 12.424C59.3852 12.424 59.5832 12.655 59.5942 13.062H61.0022C60.9692 12.006 60.1442 11.302 58.9672 11.302ZM67.1953 14.195C67.1953 12.237 66.0843 11.302 64.6103 11.302C62.9493 11.302 61.8383 12.534 61.8383 14.217C61.8383 15.977 62.9603 17.121 64.6103 17.121C65.9523 17.121 66.8213 16.428 67.1623 15.251H65.7763C65.6223 15.68 65.2043 15.9 64.6433 15.9C63.8623 15.9 63.3563 15.383 63.3123 14.646H67.1953V14.195ZM63.3123 13.667C63.3783 12.974 63.8623 12.479 64.5773 12.479C65.2813 12.479 65.7433 12.941 65.7653 13.667H63.3123Z" fill="white"/>
</g>
<defs>
<filter id="filter0_d_6838_6356" x="0" y="0" width="84" height="35" filterUnits="userSpaceOnUse" color-interpolation-filters="sRGB">
<feFlood flood-opacity="0" result="BackgroundImageFix"/>
<feColorMatrix in="SourceAlpha" type="matrix" values="0 0 0 0 0 0 0 0 0 0 0 0 0 0 0 0 0 0 127 0" result="hardAlpha"/>
<feOffset dy="4"/>
<feGaussianBlur stdDeviation="4"/>
<feComposite in2="hardAlpha" operator="out"/>
<feColorMatrix type="matrix" values="0 0 0 0 0 0 0 0 0 0 0 0 0 0 0 0 0 0 0.25 0"/>
<feBlend mode="normal" in2="BackgroundImageFix" result="effect1_dropShadow_6838_6356"/>
<feBlend mode="normal" in="SourceGraphic" in2="effect1_dropShadow_6838_6356" result="shape"/>
</filter>
</defs>
</svg>
