<svg width="12" height="13" viewBox="0 0 12 13" fill="none" xmlns="http://www.w3.org/2000/svg">
<path d="M5.15792 1.59166C5.42297 0.775914 6.57703 0.775916 6.84208 1.59166L7.59732 3.91606C7.71586 4.28087 8.05582 4.52786 8.43941 4.52786H10.8834C11.7411 4.52786 12.0978 5.62544 11.4039 6.1296L9.4266 7.56615C9.11628 7.79162 8.98642 8.19127 9.10496 8.55608L9.8602 10.8805C10.1253 11.6962 9.1916 12.3746 8.49768 11.8704L6.52043 10.4338C6.21011 10.2084 5.78989 10.2084 5.47957 10.4338L3.50231 11.8704C2.8084 12.3746 1.87475 11.6962 2.1398 10.8805L2.89504 8.55608C3.01358 8.19127 2.88372 7.79162 2.5734 7.56615L0.596144 6.1296C-0.0977693 5.62544 0.258856 4.52786 1.11658 4.52786H3.5606C3.94418 4.52786 4.28414 4.28087 4.40268 3.91606L5.15792 1.59166Z" fill="url(#paint0_linear_6838_295)"/>
<defs>
<linearGradient id="paint0_linear_6838_295" x1="6" y1="-1" x2="6" y2="15" gradientUnits="userSpaceOnUse">
<stop stop-color="#FFCC15"/>
<stop offset="1" stop-color="#FF9315"/>
</linearGradient>
</defs>
</svg>
